Coordinates
version=1
nRows=43
nColumns=12
inDegrees=yes

Units are S.I. units (second, meters, Newtons, ...)
Angles are in degrees

endheader
time	SC_y	SC_z	SC_x	AC_y	AC_z	AC_x	GH_y	GH_z	GH_yy	EL_x	PS_y
       0.0              -15.87          16.74          10.72          61.68         -9.206          2.715         -68.89          25.97         -122.1          90.02          55.11
   0.01908              -15.88          16.73          10.73          61.68         -9.206          2.714          -68.9          25.97         -122.1          90.02          55.11
   0.03815              -15.88          16.73          10.73          61.67         -9.206          2.714         -68.91          25.97         -122.1          90.01          55.11
   0.05723              -15.89          16.73          10.73          61.67         -9.206          2.713         -68.93          25.97         -122.1          90.01           55.1
    0.0763               -15.9          16.73          10.74          61.67         -9.207          2.713         -68.94          25.97         -122.0          90.01           55.1
   0.09538              -15.91          16.72          10.74          61.67         -9.207          2.712         -68.96          25.97         -122.0           90.0           55.1
    0.1145              -15.91          16.72          10.75          61.66         -9.207          2.711         -68.97          25.97         -121.9           90.0           55.1
    0.1335              -15.92          16.72          10.75          61.66         -9.207           2.71         -68.99          25.97         -121.9           90.0          55.09
    0.1526              -15.93          16.72          10.76          61.66         -9.207          2.709         -69.01          25.97         -121.9           90.0          55.09
    0.1717              -15.94          16.71          10.76          61.65         -9.207          2.708         -69.03          25.97         -121.8          89.99          55.09
    0.1908              -15.95          16.71          10.77          61.65         -9.208          2.708         -69.05          25.97         -121.8          89.99          55.08
    0.2098              -15.97          16.71          10.78          61.65         -9.208          2.706         -69.07          25.97         -121.7          89.98          55.08
    0.2289              -15.98           16.7          10.78          61.64         -9.208          2.705          -69.1          25.97         -121.6          89.98          55.07
     0.248              -15.99           16.7          10.79          61.64         -9.208          2.704         -69.13          25.96         -121.6          89.97          55.07
    0.2671              -16.01          16.69           10.8          61.63         -9.209          2.703         -69.16          25.96         -121.5          89.97          55.06
    0.2861              -16.02          16.69          10.81          61.63         -9.209          2.701         -69.19          25.96         -121.4          89.96          55.06
    0.3052              -16.04          16.68          10.82          61.62         -9.209            2.7         -69.22          25.96         -121.3          89.96          55.05
    0.3243              -16.06          16.68          10.83          61.61          -9.21          2.698         -69.26          25.96         -121.3          89.95          55.05
    0.3434              -16.08          16.67          10.84          61.61          -9.21          2.696          -69.3          25.96         -121.2          89.94          55.04
    0.3624              -16.11          16.66          10.85           61.6          -9.21          2.694         -69.35          25.96         -121.1          89.93          55.03
    0.3815              -16.13          16.65          10.86          61.59         -9.211          2.692          -69.4          25.95         -120.9          89.92          55.02
    0.4006              -16.16          16.65          10.88          61.58         -9.211          2.689         -69.45          25.95         -120.8          89.91          55.01
    0.4197              -16.19          16.64           10.9          61.57         -9.212          2.687         -69.51          25.95         -120.7           89.9           55.0
    0.4387              -16.23          16.62          10.91          61.56         -9.212          2.684         -69.58          25.95         -120.5          89.89          54.99
    0.4578              -16.26          16.61          10.93          61.55         -9.213           2.68         -69.65          25.95         -120.3          89.88          54.98
    0.4769              -16.31           16.6          10.96          61.53         -9.214          2.676         -69.73          25.94         -120.1          89.86          54.97
     0.496              -16.35          16.58          10.98          61.52         -9.215          2.672         -69.82          25.94         -119.9          89.84          54.95
     0.515              -16.41          16.57          11.01           61.5         -9.216          2.667         -69.93          25.94         -119.7          89.83          54.93
    0.5341              -16.47          16.55          11.04          61.48         -9.217          2.662         -70.05          25.93         -119.4           89.8          54.91
    0.5532              -16.54          16.53          11.08          61.46         -9.218          2.656         -70.18          25.93         -119.0          89.78          54.89
    0.5723              -16.62           16.5          11.12          61.43          -9.22          2.649         -70.33          25.92         -118.7          89.75          54.86
    0.5914              -16.71          16.47          11.17           61.4         -9.221          2.641         -70.51          25.92         -118.3          89.72          54.83
    0.6104              -16.81          16.44          11.23          61.36         -9.223          2.632         -70.71          25.91         -117.8          89.68           54.8
    0.6295              -16.93           16.4          11.29          61.32         -9.225          2.621         -70.94           25.9         -117.2          89.64          54.76
    0.6486              -17.08          16.36          11.37          61.28         -9.228          2.608         -71.21          25.89         -116.6          89.59          54.71
    0.6677              -17.24          16.31          11.45          61.22         -9.231          2.594         -71.54          25.88         -115.8          89.53          54.65
    0.6867              -17.44          16.25          11.56          61.15         -9.235          2.576         -71.92          25.86         -114.9          89.46          54.59
    0.7058              -17.68          16.17          11.69          61.07         -9.239          2.555         -72.38          25.85         -113.8          89.37          54.51
    0.7249              -17.97          16.08          11.84          60.98         -9.244           2.53         -72.94          25.83         -112.4          89.27          54.41
     0.744              -18.32          15.97          12.03          60.86         -9.251          2.498         -73.62           25.8         -110.8          89.14          54.29
     0.763              -18.76          15.83          12.26          60.71         -9.259           2.46         -74.46          25.77         -108.8          88.99          54.15
    0.7821               -19.3          15.67          12.55          60.53         -9.268          2.412          -75.5          25.74         -106.3           88.8          53.97
    0.8012              -19.98          15.45          12.91          60.31         -9.281          2.352         -76.82          25.69         -103.1          88.55          53.74
